# xmcd
#
# Track frame offsets:
#	150
#	6123
#	26049
#	71787
#	112296
#	125136
#	179603
#
# Disc length: 3226 seconds
#
# Revision: 1
# Processed by: cddbd v1.5.2PL0 Copyright (c) Steve Scherf et al.
# Submitted via: audiograbber 1.83.01
#
DISCID=6a0c9807
DTITLE=Grateful Dead - 73-12-12 The Omni, Atlanta GA
DYEAR=1900
DGENRE=
TTITLE0=WRS Prelude
TTITLE1=WRS Part One
TTITLE2=Let It Grow
TTITLE3=Wharf Rat
TTITLE4=Me and My Uncle
TTITLE5=Eyes Of The World
TTITLE6=Morning Dew
EXTD=
EXTT0=
EXTT1=
EXTT2=
EXTT3=
EXTT4=
EXTT5=
EXTT6=
PLAYORDER=
